PathFileType	4	(X/Y/Z)	S01_0010_Gait_markers.trc
DataRate	CameraRate	NumFrames	NumMarkers	Units	OrigDataRate	OrigDataStartFrame	OrigNumFrames
250.000000	250.000000	4	54	mm	250.000000	132	354
Frame#	Time	HEAD_ANT			R_HEAD			L_HEAD			C7			R_BACK			L_BACK			STERNUM			R_ACROMION			R_HUM_PROX			R_HUM_ANT			R_HUM_POST			R_ELBOW_LAT			R_ELBOW_MED			R_FOREARM			R_WIRST_LAT			R_WRITS_MED			R_HAND			L_ACROMION			L_HUM_PROX			L_HUM_ANT			L_HUM_POST			L_ELBOW_LAT			L_ELBOW_MED			L_FOREARM			L_WRIST_LAT			L_WIRST_MED			L_HAND			R_ILIAC			SACRUM			L_ILIAC			R_GTROCH			R_THIGH__1			R_THIGH_2			R_THIGH_3			R_THIGH_4			R_SHANK_1			R_SHANK_2			R_SHANK_3			R_SHANK_4			R_HEEL			R_FOOT_LAT			R_FOOT_MED			L_GTROCH			L_THIGH_1			L_THIGH_2			L_THIGH_3			L_THIGH_4			L_SHANK_1			L_SHANK_2			L_SHANK_3			L_SHANK_4			L_HEEL			L_FOOT_LAT			L_FOOT_MED			
		X1	Y1	Z1	X2	Y2	Z2	X3	Y3	Z3	X4	Y4	Z4	X5	Y5	Z5	X6	Y6	Z6	X7	Y7	Z7	X8	Y8	Z8	X9	Y9	Z9	X10	Y10	Z10	X11	Y11	Z11	X12	Y12	Z12	X13	Y13	Z13	X14	Y14	Z14	X15	Y15	Z15	X16	Y16	Z16	X17	Y17	Z17	X18	Y18	Z18	X19	Y19	Z19	X20	Y20	Z20	X21	Y21	Z21	X22	Y22	Z22	X23	Y23	Z23	X24	Y24	Z24	X25	Y25	Z25	X26	Y26	Z26	X27	Y27	Z27	X28	Y28	Z28	X29	Y29	Z29	X30	Y30	Z30	X31	Y31	Z31	X32	Y32	Z32	X33	Y33	Z33	X34	Y34	Z34	X35	Y35	Z35	X36	Y36	Z36	X37	Y37	Z37	X38	Y38	Z38	X39	Y39	Z39	X40	Y40	Z40	X41	Y41	Z41	X42	Y42	Z42	X43	Y43	Z43	X44	Y44	Z44	X45	Y45	Z45	X46	Y46	Z46	X47	Y47	Z47	X48	Y48	Z48	X49	Y49	Z49	X50	Y50	Z50	X51	Y51	Z51	X52	Y52	Z52	X53	Y53	Z53	X54	Y54	Z54	

133	0.528	838.890625	1726.15185546875	-281.5473327636715	782.0112915039062	1673.048706054688	-203.8977661132809	777.6792602539062	1680.863525390625	-352.0214843749996	640.71240234375	1512.491333007812	-283.991058349609	561.7207641601562	1321.114990234375	-214.0635070800778	556.5784301757812	1324.068237304688	-355.6002502441403	809.5926513671875	1340.126098632812	-288.2921142578122	721.342529296875	1458.115600585938	-114.1611938476559	689.8966064453125	1298.872680664062	-22.6688518524167	752.4766845703125	1213.592041015625	-27.31364822387668	632.8928833007812	1214.267456054688	-5.030241966247289	684.6583251953125	1107.760986328125	-5.600343704223387	647.304443359375	1104.569702148438	-81.8371429443357	816.4730834960938	947.4500732421875	-43.09451293945291	858.9676513671875	896.1396484375	-96.33937072753886	806.3154296875	854.9222412109375	-49.76279449462871	892.5809326171875	810.1969604492188	-52.18435287475568	714.6494750976562	1464.2900390625	-453.7405395507809	668.3433227539062	1304.303833007813	-552.8601074218747	722.4556274414062	1218.815551757813	-565.7852783203123	598.9710083007812	1233.350219726563	-574.248352050781	650.8832397460938	1124.506469726563	-593.2142944335935	600.708251953125	1122.1259765625	-533.722717285156	740.4667358398438	940.7810668945314	-588.5307617187498	771.6337890625	876.6544799804689	-539.4855957031248	720.52197265625	860.6152954101564	-600.994934082031	790.1406860351562	794.4359130859376	-588.6930541992185	686.8364868164062	1064.495239257812	-117.1568527221677	564.0228271484375	1038.99658203125	-297.3615722656248	694.9727172851562	1055.915893554688	-461.3703002929685	621.3310546875	931.8038940429688	-106.820487976074	578.4461669921875	661.42724609375	-133.9752655029295	636.8635864257812	661.1600952148438	-126.0424270629881	614.4564819335938	562.35595703125	-163.2948150634764	556.2733154296875	587.3952026367188	-154.9959564208983	469.4944152832031	364.3579711914063	-167.9201049804687	518.6016845703125	331.5520324707032	-181.6553497314452	495.4202270507812	251.7311553955079	-205.2413330078124	434.8953857421875	273.0252685546876	-196.9805908203124	352.1134033203125	84.34157562255866	-295.9202575683594	495.5269165039062	20.01495170593266	-198.1895751953125	564.8167114257812	28.7969703674317	-291.6896057128906	673.5965576171875	940.3922119140626	-469.263732910156	851.8994140625	686.1907958984376	-455.4196472167967	795.4296875	684.9298706054689	-474.4065856933592	818.1563110351562	584.5704345703126	-441.3364868164061	875.5716552734375	611.4436645507814	-431.0425720214843	916.982177734375	345.6469726562501	-432.2043762207031	866.3374633789062	312.0053100585939	-437.0365600585937	883.067626953125	227.2826232910157	-422.1118469238281	943.2557373046875	248.0048828125001	-412.6482849121093	889.7587890625	33.75451278686531	-353.5147399902344	1068.688354492188	52.62075805664072	-414.8309020996094	1095.364990234375	76.9365539550782	-320.7139892578125	
134	0.532	844.7548217773438	1725.0576171875	-282.5757141113277	788.037353515625	1672.282958984375	-204.6617584228512	783.5743408203125	1679.645751953125	-352.7718811035152	646.5448608398438	1511.487548828125	-284.3034057617184	567.3994140625	1320.258911132812	-214.2020568847653	562.3325805664062	1323.069946289062	-355.7576599121091	815.3090209960938	1339.078491210938	-288.9298706054685	727.3412475585938	1457.261962890625	-114.6893463134762	696.2946166992188	1297.937377929688	-23.09177780151338	758.8198852539062	1212.740478515625	-27.73208236694309	639.2216186523438	1213.392700195312	-5.226077556609838	690.8173217773438	1106.909301757812	-5.830239772796385	653.1090087890625	1103.69482421875	-81.81543731689429	822.9100952148438	946.78857421875	-43.27353668212869	865.3944702148438	895.35498046875	-96.61908721923808	812.845458984375	854.1817016601562	-49.79131317138653	899.0887451171875	809.6716918945312	-52.05775070190412	720.4662475585938	1463.105834960938	-454.2296142578122	673.8497314453125	1303.12890625	-553.2208862304684	727.921630859375	1217.745971679688	-566.0956420898435	604.5868530273438	1231.974853515625	-574.3404541015623	656.5687866210938	1123.184448242188	-593.281555175781	606.3349609375	1120.696411132813	-533.9492187499998	745.9603881835938	939.6323852539064	-588.406799316406	777.2543334960938	875.3442993164064	-539.302551269531	725.9696044921875	859.4877319335939	-600.8637695312498	795.6510009765625	793.2019653320314	-588.518127441406	692.2612915039062	1063.735229492188	-117.5995178222654	569.9033813476562	1037.805786132812	-297.5789489746091	700.9450073242188	1054.627685546875	-461.4916992187498	626.6624145507812	931.2377319335938	-106.8095550537107	582.856689453125	661.4445190429688	-133.9162750244139	641.2449340820312	660.7314453125	-125.9195480346678	618.7203369140625	562.3472900390625	-163.3113555908202	558.661376953125	586.354248046875	-155.839874267578	472.2445983886719	364.8607482910157	-167.8915710449218	521.0765991210938	331.7977294921876	-181.492706298828	497.2410278320312	252.0743103027344	-205.1602478027343	436.9235534667969	273.7902832031251	-196.8552551269531	352.51171875	85.67914581298835	-295.6330261230469	495.5127563476562	20.08587455749516	-198.2367248535156	564.7933349609375	28.76728057861335	-291.7503662109375	679.69287109375	939.0717163085939	-469.284484863281	856.82275390625	685.6914672851564	-455.4100341796873	800.7037353515625	683.7187500000001	-475.0130920410155	822.8868408203125	582.8156127929689	-441.1936645507811	880.3536376953125	609.7001953125001	-430.9186096191405	925.514892578125	345.8649902343751	-432.1161193847656	875.5888671875	311.1460571289064	-436.9221496582031	894.3936157226562	226.640365600586	-420.6992187499999	953.8163452148438	248.6597290039063	-412.2902526855468	905.0574951171875	33.62938690185555	-353.1512145996094	1083.644897460938	55.40530776977548	-413.909423828125	1109.753295898438	80.42967224121101	-320.4928894042969	
135	0.536	850.8092651367188	1723.95166015625	-283.4298400878902	793.9619750976562	1671.405517578125	-205.4109649658199	789.3333740234375	1678.459594726562	-353.730072021484	652.4273681640625	1510.50390625	-284.688079833984	573.1959838867188	1319.375854492188	-214.5689697265622	568.0111083984375	1322.192138671875	-356.065002441406	821.22119140625	1338.04541015625	-289.3392639160153	733.2500610351562	1456.370483398438	-115.1565246582028	702.5806884765625	1297.13720703125	-23.48610687255831	765.1856689453125	1212.009155273438	-28.39800262451145	645.5735473632812	1212.694946289062	-5.514721393584936	697.3629760742188	1105.97216796875	-6.067119121551269	659.781494140625	1102.626586914062	-82.14808654785132	829.350341796875	945.9944458007812	-43.51524353027322	871.8440551757812	894.3964233398438	-96.95687866210918	819.3008422851562	853.3141479492188	-49.82628631591778	905.6383666992188	809.03369140625	-51.97425079345685	726.30517578125	1461.917358398438	-454.7054748535153	679.4461059570312	1301.872192382813	-553.5581054687497	733.4901733398438	1216.547241210938	-566.5739135742185	610.0250244140625	1230.923706054688	-574.3703613281248	662.03466796875	1121.947631835938	-593.6126708984373	611.7545166015625	1119.56201171875	-534.2728881835935	751.5614624023438	938.4920654296876	-588.5605468749998	782.7457275390625	874.3928222656251	-540.1515502929685	731.5100708007812	858.0917358398439	-600.7338256835935	801.01806640625	791.8947143554689	-588.1080932617185	697.5411376953125	1062.857421875	-117.5732040405271	575.7151489257812	1036.721801757812	-297.6207885742185	706.7229614257812	1053.51025390625	-461.6765441894529	632.1116333007812	930.6812133789062	-106.7527236938474	587.3512573242188	661.3257446289062	-133.8929290771483	645.6700439453125	660.4016723632812	-126.154815673828	622.5855102539062	561.694091796875	-163.0146484374999	564.6446533203125	587.54541015625	-154.7575225830077	475.0485229492188	365.4736328125001	-167.8125762939452	523.6221923828125	331.8522338867188	-181.3555145263671	499.1558532714844	252.4708557128907	-204.9184875488281	439.0010375976562	274.4418945312501	-196.6022796630859	352.9408264160156	87.07540893554695	-295.3542785644531	495.5224609375	20.11745071411137	-198.2529144287109	564.7884521484375	28.71880912780768	-291.7490539550781	685.6043090820312	937.6734008789064	-469.3567199707029	861.5608520507812	682.8283081054689	-455.3383789062498	805.4737548828125	681.3323974609376	-474.3399963378905	827.891357421875	581.0920410156251	-441.328155517578	885.1170654296875	607.8601074218751	-430.5851745605468	934.3296508789062	345.784637451172	-431.5406799316406	884.8600463867188	310.2533569335939	-436.3173217773437	905.4541015625	226.1393432617188	-420.2664489746093	964.3403930664062	249.313690185547	-412.1773071289062	919.828125	33.23343276977547	-352.5490112304688	1098.434204101562	58.22058105468759	-413.5492553710938	1123.771362304688	84.06600189208991	-320.2463989257812	
136	0.54	856.8145141601562	1723.056030273438	-284.3124999999996	799.9060668945312	1670.3623046875	-206.2446594238278	795.3112182617188	1677.3125	-354.3801574707027	658.1884155273438	1509.572875976562	-285.1313476562497	579.15625	1318.431030273438	-214.9480438232419	573.8418579101562	1321.19921875	-356.3953857421872	827.0853881835938	1337.051635742188	-289.587463378906	739.2745361328125	1455.43798828125	-115.7472381591794	708.7201538085938	1296.386474609375	-23.95757293701143	771.61865234375	1211.22265625	-28.45431327819797	651.9523315429688	1211.74365234375	-5.735557556152075	703.765625	1105.202514648438	-6.330069065093749	666.4456787109375	1101.844116210938	-82.25930023193335	835.7377319335938	945.1597290039062	-43.78494644165018	878.2622680664062	893.5611572265625	-96.80120849609355	825.730224609375	852.5189208984375	-49.95301818847637	912.0216064453125	808.4484252929688	-51.81823348999006	731.8924560546875	1460.736083984375	-455.2814331054684	685.0157470703125	1300.603393554688	-553.7689819335934	739.1911010742188	1215.268432617188	-567.0080566406248	615.5286865234375	1229.822509765625	-574.6918945312498	667.6233520507812	1120.6728515625	-593.807678222656	617.447021484375	1118.471557617188	-534.349914550781	756.8419189453125	936.9685668945314	-588.7894897460935	788.4557495117188	873.2283935546876	-540.0626220703123	737.21240234375	856.8126831054689	-600.6848144531248	806.5625610351562	790.6277465820314	-587.855773925781	702.7611694335938	1062.167602539062	-117.9544372558591	581.6338500976562	1035.435302734375	-298.2387390136716	712.6336669921875	1052.41357421875	-461.7406921386716	637.653076171875	930.101806640625	-106.8524780273435	591.9112548828125	661.2260131835938	-133.8421020507811	650.20263671875	659.966552734375	-126.0353393554686	626.7608032226562	561.416259765625	-162.8509368896483	568.9425659179688	587.3058471679688	-154.6512756347655	477.9432983398438	365.8748474121094	-167.6114196777343	526.2588500976562	331.9154357910157	-181.2621154785155	501.0805053710938	252.7680969238282	-204.7742767333984	441.1256103515625	275.2724609375001	-196.3557891845703	353.4554443359375	88.50276947021491	-294.9146423339844	495.5494689941406	20.18169212341313	-198.2725982666016	564.7691650390625	28.69882965087897	-291.7874755859375	691.6832275390625	936.3125610351564	-469.3420715332029	866.9089965820312	682.4779052734376	-455.7677001953123	810.7492065429688	680.5120239257814	-475.532745361328	832.5054931640625	579.4688720703126	-440.9023437499999	889.9348754882812	605.9866333007814	-430.345977783203	942.8134765625	345.7801818847657	-430.9523010253906	893.9266967773438	309.5342712402345	-435.5806884765624	916.0702514648438	225.7022399902345	-419.4536743164062	974.64990234375	249.9377899169923	-411.6730957031249	934.126708984375	33.07075119018563	-351.9745483398438	1111.865478515625	61.58536529541025	-413.5894470214844	1136.953125	87.2678298950196	-320.0084533691406	
